<mxfile host="app.diagrams.net" modified="2022-01-10T06:34:06.676Z" agent="5.0 (Macintosh; Intel Mac OS X 10_15_7) AppleWebKit/537.36 (KHTML, like Gecko) Chrome/97.0.4692.71 Safari/537.36" etag="E3_3V-BX6_udQhVbsL07" version="16.1.2" type="github">
  <diagram id="KkJwW2eZt0GqGECuKsEb" name="第 1 页">
    <mxGraphModel dx="997" dy="773" grid="1" gridSize="10" guides="1" tooltips="1" connect="1" arrows="1" fold="1" page="1" pageScale="1" pageWidth="827" pageHeight="1169" math="0" shadow="0">
      <root>
        <mxCell id="0" />
        <mxCell id="1" parent="0" />
        <mxCell id="EU6etV6asjpZ1Nc5BlgQ-5" value="" style="edgeStyle=orthogonalEdgeStyle;rounded=0;orthogonalLoop=1;jettySize=auto;html=1;fontFamily=Comic Sans MS;fontStyle=1" edge="1" parent="1" source="EU6etV6asjpZ1Nc5BlgQ-1" target="EU6etV6asjpZ1Nc5BlgQ-4">
          <mxGeometry relative="1" as="geometry" />
        </mxCell>
        <mxCell id="EU6etV6asjpZ1Nc5BlgQ-7" value="" style="edgeStyle=orthogonalEdgeStyle;rounded=0;orthogonalLoop=1;jettySize=auto;html=1;fontFamily=Comic Sans MS;fontStyle=1" edge="1" parent="1" source="EU6etV6asjpZ1Nc5BlgQ-1" target="EU6etV6asjpZ1Nc5BlgQ-6">
          <mxGeometry relative="1" as="geometry" />
        </mxCell>
        <mxCell id="EU6etV6asjpZ1Nc5BlgQ-14" style="edgeStyle=orthogonalEdgeStyle;rounded=0;orthogonalLoop=1;jettySize=auto;html=1;exitX=1;exitY=0.5;exitDx=0;exitDy=0;entryX=0;entryY=0.5;entryDx=0;entryDy=0;fontFamily=Comic Sans MS;fontStyle=1" edge="1" parent="1" source="EU6etV6asjpZ1Nc5BlgQ-1" target="EU6etV6asjpZ1Nc5BlgQ-13">
          <mxGeometry relative="1" as="geometry" />
        </mxCell>
        <mxCell id="EU6etV6asjpZ1Nc5BlgQ-1" value="Proposal Phase" style="rounded=1;whiteSpace=wrap;html=1;fontFamily=Comic Sans MS;fontStyle=1;fillColor=#FFFFFF;fontColor=#000000;strokeColor=#000000;gradientColor=none;fontSize=16;" vertex="1" parent="1">
          <mxGeometry x="11" y="210" width="120" height="60" as="geometry" />
        </mxCell>
        <mxCell id="EU6etV6asjpZ1Nc5BlgQ-9" value="" style="edgeStyle=orthogonalEdgeStyle;rounded=0;orthogonalLoop=1;jettySize=auto;html=1;fontFamily=Comic Sans MS;fontStyle=1" edge="1" parent="1" source="EU6etV6asjpZ1Nc5BlgQ-4" target="EU6etV6asjpZ1Nc5BlgQ-8">
          <mxGeometry relative="1" as="geometry" />
        </mxCell>
        <mxCell id="EU6etV6asjpZ1Nc5BlgQ-4" value="Created" style="rounded=1;whiteSpace=wrap;html=1;fontFamily=Comic Sans MS;fontStyle=1;strokeColor=default;fontSize=16;" vertex="1" parent="1">
          <mxGeometry x="251" y="150" width="120" height="60" as="geometry" />
        </mxCell>
        <mxCell id="EU6etV6asjpZ1Nc5BlgQ-12" value="" style="edgeStyle=orthogonalEdgeStyle;rounded=0;orthogonalLoop=1;jettySize=auto;html=1;fontFamily=Comic Sans MS;fontStyle=1" edge="1" parent="1" source="EU6etV6asjpZ1Nc5BlgQ-6" target="EU6etV6asjpZ1Nc5BlgQ-11">
          <mxGeometry relative="1" as="geometry" />
        </mxCell>
        <mxCell id="EU6etV6asjpZ1Nc5BlgQ-6" value="Vote" style="rounded=1;whiteSpace=wrap;html=1;fontFamily=Comic Sans MS;fontStyle=1;strokeColor=default;fontSize=16;" vertex="1" parent="1">
          <mxGeometry x="251" y="210" width="120" height="60" as="geometry" />
        </mxCell>
        <mxCell id="EU6etV6asjpZ1Nc5BlgQ-8" value="Deposit `&lt;span style=&quot;&quot;&gt;MaterializeInitialized &lt;/span&gt;` event" style="rounded=1;whiteSpace=wrap;html=1;fontFamily=Comic Sans MS;fontStyle=1;labelBackgroundColor=default;fontColor=default;" vertex="1" parent="1">
          <mxGeometry x="451" y="150" width="330" height="60" as="geometry" />
        </mxCell>
        <mxCell id="EU6etV6asjpZ1Nc5BlgQ-11" value="Deposit `&lt;span style=&quot;&quot;&gt;MaterializeVoteFor&amp;nbsp;&lt;/span&gt;` event" style="rounded=1;whiteSpace=wrap;html=1;fontFamily=Comic Sans MS;fontStyle=1;labelBackgroundColor=default;fontColor=default;" vertex="1" parent="1">
          <mxGeometry x="451" y="210" width="330" height="60" as="geometry" />
        </mxCell>
        <mxCell id="EU6etV6asjpZ1Nc5BlgQ-16" value="" style="edgeStyle=orthogonalEdgeStyle;rounded=0;orthogonalLoop=1;jettySize=auto;html=1;fontFamily=Comic Sans MS;fontStyle=1" edge="1" parent="1" source="EU6etV6asjpZ1Nc5BlgQ-13" target="EU6etV6asjpZ1Nc5BlgQ-15">
          <mxGeometry relative="1" as="geometry" />
        </mxCell>
        <mxCell id="EU6etV6asjpZ1Nc5BlgQ-13" value="Approved" style="rounded=1;whiteSpace=wrap;html=1;fontFamily=Comic Sans MS;fontStyle=1;strokeColor=default;fontSize=16;" vertex="1" parent="1">
          <mxGeometry x="251" y="270" width="120" height="60" as="geometry" />
        </mxCell>
        <mxCell id="EU6etV6asjpZ1Nc5BlgQ-15" value="Deposit `&lt;span style=&quot;&quot;&gt;MaterializeMinted&lt;/span&gt;&lt;span style=&quot;&quot;&gt;&amp;nbsp;&lt;/span&gt;` event" style="rounded=1;whiteSpace=wrap;html=1;fontFamily=Comic Sans MS;fontStyle=1;labelBackgroundColor=default;fontColor=default;" vertex="1" parent="1">
          <mxGeometry x="451" y="270" width="330" height="60" as="geometry" />
        </mxCell>
      </root>
    </mxGraphModel>
  </diagram>
</mxfile>
